# xmcd
#
# Track frame offsets: 
#        150
#        16547
#        36797
#        52672
#        63812
#        83270
#        95955
#        113002
#        131907
#        146825
#        162177
#        180310
#
# Disc length: 2661 seconds
#
# Revision: 4
# Processed by: cddbd v1.4PL0 Copyright (c) Steve Scherf et al.
# Submitted via: ExactAudioCopy v0.90b4
#
DISCID=8b0a630c
DTITLE=Jane Birkin - À la légère
DYEAR=1998
DGENRE=Chanson
TTITLE0=Les clés du paradis
TTITLE1=Les avalanches
TTITLE2=À la légère
TTITLE3=Plus loin de ta rue
TTITLE4=Trouble
TTITLE5=La bulle
TTITLE6=Love slow motion
TTITLE7=Si tout était faux
TTITLE8=L`autre moi
TTITLE9=La pleine Lune
TTITLE10=Simple en français
TTITLE11=C'est comme ça
EXTD=YEAR: 1998 ID3G: 102
EXTT0=
EXTT1=
EXTT2=
EXTT3=
EXTT4=
EXTT5=
EXTT6=
EXTT7=
EXTT8=
EXTT9=
EXTT10=
EXTT11=
PLAYORDER=
